<?xml version="1.0" standalone="no"?>
<!DOCTYPE svg PUBLIC "-//W3C//DTD SVG 20010904//EN"
 "http://www.w3.org/TR/2001/REC-SVG-20010904/DTD/svg10.dtd">
<svg version="1.0" xmlns="http://www.w3.org/2000/svg"
 width="512.000000pt" height="512.000000pt" viewBox="0 0 512.000000 512.000000"
 preserveAspectRatio="xMidYMid meet">

<g transform="translate(0.000000,512.000000) scale(0.100000,-0.100000)"
fill="#000000" stroke="none">
<path d="M2421 5109 c-109 -12 -291 -53 -400 -90 -129 -45 -374 -170 -480
-246 -351 -252 -613 -629 -721 -1038 -50 -186 -60 -278 -70 -625 -22 -758
-116 -1273 -367 -2005 -62 -181 -65 -196 -70 -306 -7 -146 11 -236 72 -357 78
-155 177 -252 330 -327 119 -58 226 -80 360 -72 55 3 125 13 155 22 126 38
271 131 344 217 l35 43 51 -57 c195 -218 515 -315 800 -243 128 33 297 131
383 223 l29 30 51 -39 c188 -144 451 -185 672 -105 l62 22 61 -36 c152 -92
369 -125 540 -82 328 83 552 366 552 697 0 92 -24 223 -154 845 -108 521 -141
837 -156 1510 -8 377 -10 413 -34 525 -14 66 -39 163 -56 215 -34 102 -131
314 -183 395 -391 623 -1079 959 -1806 884z m-235 -1240 c86 -41 149 -139 180
-278 22 -98 15 -307 -14 -401 -48 -157 -109 -266 -192 -344 -186 -174 -393
-92 -467 187 -27 99 -22 287 10 408 85 322 303 516 483 428z m1200 -7 c130
-67 233 -227 286 -440 27 -111 30 -297 5 -389 -47 -176 -144 -277 -267 -277
-165 0 -322 177 -396 449 -25 92 -30 296 -10 389 32 141 114 259 200 286 46
14 137 5 182 -18z m-642 -1086 c18 -7 47 -31 64 -52 130 -157 64 -473 -102
-491 -24 -3 -55 -3 -68 0 -36 9 -88 66 -117 127 -22 47 -26 69 -26 150 0 77 5
104 23 145 52 114 136 159 226 121z"/>
</g>
</svg>
